<?xml version="1.0" encoding="utf-8" standalone="no"?>
<!DOCTYPE svg PUBLIC "-//W3C//DTD SVG 1.1//EN"
  "http://www.w3.org/Graphics/SVG/1.1/DTD/svg11.dtd">
<svg xmlns:xlink="http://www.w3.org/1999/xlink" width="360pt" height="288pt" viewBox="0 0 360 288" xmlns="http://www.w3.org/2000/svg" version="1.1">
 <metadata>
  <rdf:RDF xmlns:dc="http://purl.org/dc/elements/1.1/" xmlns:cc="http://creativecommons.org/ns#" xmlns:rdf="http://www.w3.org/1999/02/22-rdf-syntax-ns#">
   <cc:Work>
    <dc:type rdf:resource="http://purl.org/dc/dcmitype/StillImage"/>
    <dc:date>2024-07-02T14:07:45.047836</dc:date>
    <dc:format>image/svg+xml</dc:format>
    <dc:creator>
     <cc:Agent>
      <dc:title>Matplotlib v3.7.1, https://matplotlib.org/</dc:title>
     </cc:Agent>
    </dc:creator>
   </cc:Work>
  </rdf:RDF>
 </metadata>
 <defs>
  <style type="text/css">*{stroke-linejoin: round; stroke-linecap: butt}</style>
 </defs>
 <g id="figure_1">
  <g id="patch_1">
   <path d="M 0 288 
L 360 288 
L 360 0 
L 0 0 
z
" style="fill: #ffffff"/>
  </g>
  <g id="axes_1">
   <g id="patch_2">
    <path d="M 45 252 
L 324 252 
L 324 34.56 
L 45 34.56 
z
" style="fill: #ffffff"/>
   </g>
   <g id="patch_3">
    <path d="M 56.625 252 
L 58.285714 252 
L 58.285714 251.982832 
L 56.625 251.982832 
z
" clip-path="url(#p213393600d)" style="fill: #1f77b4"/>
   </g>
   <g id="patch_4">
    <path d="M 103.125 252 
L 104.785714 252 
L 104.785714 251.970793 
L 103.125 251.970793 
z
" clip-path="url(#p213393600d)" style="fill: #1f77b4"/>
   </g>
   <g id="patch_5">
    <path d="M 149.625 252 
L 151.285714 252 
L 151.285714 251.900279 
L 149.625 251.900279 
z
" clip-path="url(#p213393600d)" style="fill: #1f77b4"/>
   </g>
   <g id="patch_6">
    <path d="M 196.125 252 
L 197.785714 252 
L 197.785714 251.97777 
L 196.125 251.97777 
z
" clip-path="url(#p213393600d)" style="fill: #1f77b4"/>
   </g>
   <g id="patch_7">
    <path d="M 242.625 252 
L 244.285714 252 
L 244.285714 251.977937 
L 242.625 251.977937 
z
" clip-path="url(#p213393600d)" style="fill: #1f77b4"/>
   </g>
   <g id="patch_8">
    <path d="M 289.125 252 
L 290.785714 252 
L 290.785714 251.967352 
L 289.125 251.967352 
z
" clip-path="url(#p213393600d)" style="fill: #1f77b4"/>
   </g>
   <g id="patch_9">
    <path d="M 58.285714 252 
L 59.946429 252 
L 59.946429 251.996064 
L 58.285714 251.996064 
z
" clip-path="url(#p213393600d)" style="fill: #ff7f0e"/>
   </g>
   <g id="patch_10">
    <path d="M 104.785714 252 
L 106.446429 252 
L 106.446429 251.991876 
L 104.785714 251.991876 
z
" clip-path="url(#p213393600d)" style="fill: #ff7f0e"/>
   </g>
   <g id="patch_11">
    <path d="M 151.285714 252 
L 152.946429 252 
L 152.946429 251.989636 
L 151.285714 251.989636 
z
" clip-path="url(#p213393600d)" style="fill: #ff7f0e"/>
   </g>
   <g id="patch_12">
    <path d="M 197.785714 252 
L 199.446429 252 
L 199.446429 251.985256 
L 197.785714 251.985256 
z
" clip-path="url(#p213393600d)" style="fill: #ff7f0e"/>
   </g>
   <g id="patch_13">
    <path d="M 244.285714 252 
L 245.946429 252 
L 245.946429 251.964215 
L 244.285714 251.964215 
z
" clip-path="url(#p213393600d)" style="fill: #ff7f0e"/>
   </g>
   <g id="patch_14">
    <path d="M 290.785714 252 
L 292.446429 252 
L 292.446429 251.994305 
L 290.785714 251.994305 
z
" clip-path="url(#p213393600d)" style="fill: #ff7f0e"/>
   </g>
   <g id="patch_15">
    <path d="M 59.946429 252 
L 61.607143 252 
L 61.607143 245.61325 
L 59.946429 245.61325 
z
" clip-path="url(#p213393600d)" style="fill: #2ca02c"/>
   </g>
   <g id="patch_16">
    <path d="M 106.446429 252 
L 108.107143 252 
L 108.107143 250.498082 
L 106.446429 250.498082 
z
" clip-path="url(#p213393600d)" style="fill: #2ca02c"/>
   </g>
   <g id="patch_17">
    <path d="M 152.946429 252 
L 154.607143 252 
L 154.607143 248.086967 
L 152.946429 248.086967 
z
" clip-path="url(#p213393600d)" style="fill: #2ca02c"/>
   </g>
   <g id="patch_18">
    <path d="M 199.446429 252 
L 201.107143 252 
L 201.107143 251.992918 
L 199.446429 251.992918 
z
" clip-path="url(#p213393600d)" style="fill: #2ca02c"/>
   </g>
   <g id="patch_19">
    <path d="M 245.946429 252 
L 247.607143 252 
L 247.607143 251.99797 
L 245.946429 251.99797 
z
" clip-path="url(#p213393600d)" style="fill: #2ca02c"/>
   </g>
   <g id="patch_20">
    <path d="M 292.446429 252 
L 294.107143 252 
L 294.107143 251.998317 
L 292.446429 251.998317 
z
" clip-path="url(#p213393600d)" style="fill: #2ca02c"/>
   </g>
   <g id="patch_21">
    <path d="M 61.607143 252 
L 63.267857 252 
L 63.267857 249.978196 
L 61.607143 249.978196 
z
" clip-path="url(#p213393600d)" style="fill: #d62728"/>
   </g>
   <g id="patch_22">
    <path d="M 108.107143 252 
L 109.767857 252 
L 109.767857 251.674339 
L 108.107143 251.674339 
z
" clip-path="url(#p213393600d)" style="fill: #d62728"/>
   </g>
   <g id="patch_23">
    <path d="M 154.607143 252 
L 156.267857 252 
L 156.267857 251.280292 
L 154.607143 251.280292 
z
" clip-path="url(#p213393600d)" style="fill: #d62728"/>
   </g>
   <g id="patch_24">
    <path d="M 201.107143 252 
L 202.767857 252 
L 202.767857 250.064773 
L 201.107143 250.064773 
z
" clip-path="url(#p213393600d)" style="fill: #d62728"/>
   </g>
   <g id="patch_25">
    <path d="M 247.607143 252 
L 249.267857 252 
L 249.267857 251.73449 
L 247.607143 251.73449 
z
" clip-path="url(#p213393600d)" style="fill: #d62728"/>
   </g>
   <g id="patch_26">
    <path d="M 294.107143 252 
L 295.767857 252 
L 295.767857 251.917598 
L 294.107143 251.917598 
z
" clip-path="url(#p213393600d)" style="fill: #d62728"/>
   </g>
   <g id="patch_27">
    <path d="M 63.267857 252 
L 64.928571 252 
L 64.928571 202.619449 
L 63.267857 202.619449 
z
" clip-path="url(#p213393600d)" style="fill: #9467bd"/>
   </g>
   <g id="patch_28">
    <path d="M 109.767857 252 
L 111.428571 252 
L 111.428571 244.314053 
L 109.767857 244.314053 
z
" clip-path="url(#p213393600d)" style="fill: #9467bd"/>
   </g>
   <g id="patch_29">
    <path d="M 156.267857 252 
L 157.928571 252 
L 157.928571 224.718564 
L 156.267857 224.718564 
z
" clip-path="url(#p213393600d)" style="fill: #9467bd"/>
   </g>
   <g id="patch_30">
    <path d="M 202.767857 252 
L 204.428571 252 
L 204.428571 219.769273 
L 202.767857 219.769273 
z
" clip-path="url(#p213393600d)" style="fill: #9467bd"/>
   </g>
   <g id="patch_31">
    <path d="M 249.267857 252 
L 250.928571 252 
L 250.928571 241.887867 
L 249.267857 241.887867 
z
" clip-path="url(#p213393600d)" style="fill: #9467bd"/>
   </g>
   <g id="patch_32">
    <path d="M 295.767857 252 
L 297.428571 252 
L 297.428571 247.688694 
L 295.767857 247.688694 
z
" clip-path="url(#p213393600d)" style="fill: #9467bd"/>
   </g>
   <g id="patch_33">
    <path d="M 64.928571 252 
L 66.589286 252 
L 66.589286 224.017779 
L 64.928571 224.017779 
z
" clip-path="url(#p213393600d)" style="fill: #8c564b"/>
   </g>
   <g id="patch_34">
    <path d="M 111.428571 252 
L 113.089286 252 
L 113.089286 247.009106 
L 111.428571 247.009106 
z
" clip-path="url(#p213393600d)" style="fill: #8c564b"/>
   </g>
   <g id="patch_35">
    <path d="M 157.928571 252 
L 159.589286 252 
L 159.589286 242.044442 
L 157.928571 242.044442 
z
" clip-path="url(#p213393600d)" style="fill: #8c564b"/>
   </g>
   <g id="patch_36">
    <path d="M 204.428571 252 
L 206.089286 252 
L 206.089286 235.504074 
L 204.428571 235.504074 
z
" clip-path="url(#p213393600d)" style="fill: #8c564b"/>
   </g>
   <g id="patch_37">
    <path d="M 250.928571 252 
L 252.589286 252 
L 252.589286 248.379672 
L 250.928571 248.379672 
z
" clip-path="url(#p213393600d)" style="fill: #8c564b"/>
   </g>
   <g id="patch_38">
    <path d="M 297.428571 252 
L 299.089286 252 
L 299.089286 250.554939 
L 297.428571 250.554939 
z
" clip-path="url(#p213393600d)" style="fill: #8c564b"/>
   </g>
   <g id="patch_39">
    <path d="M 66.589286 252 
L 68.25 252 
L 68.25 244.941234 
L 66.589286 244.941234 
z
" clip-path="url(#p213393600d)" style="fill: #e377c2"/>
   </g>
   <g id="patch_40">
    <path d="M 113.089286 252 
L 114.75 252 
L 114.75 249.67698 
L 113.089286 249.67698 
z
" clip-path="url(#p213393600d)" style="fill: #e377c2"/>
   </g>
   <g id="patch_41">
    <path d="M 159.589286 252 
L 161.25 252 
L 161.25 247.100092 
L 159.589286 247.100092 
z
" clip-path="url(#p213393600d)" style="fill: #e377c2"/>
   </g>
   <g id="patch_42">
    <path d="M 206.089286 252 
L 207.75 252 
L 207.75 218.203975 
L 206.089286 218.203975 
z
" clip-path="url(#p213393600d)" style="fill: #e377c2"/>
   </g>
   <g id="patch_43">
    <path d="M 252.589286 252 
L 254.25 252 
L 254.25 238.46011 
L 252.589286 238.46011 
z
" clip-path="url(#p213393600d)" style="fill: #e377c2"/>
   </g>
   <g id="patch_44">
    <path d="M 299.089286 252 
L 300.75 252 
L 300.75 248.597739 
L 299.089286 248.597739 
z
" clip-path="url(#p213393600d)" style="fill: #e377c2"/>
   </g>
   <g id="patch_45">
    <path d="M 68.25 252 
L 69.910714 252 
L 69.910714 251.899209 
L 68.25 251.899209 
z
" clip-path="url(#p213393600d)" style="fill: #7f7f7f"/>
   </g>
   <g id="patch_46">
    <path d="M 114.75 252 
L 116.410714 252 
L 116.410714 251.816717 
L 114.75 251.816717 
z
" clip-path="url(#p213393600d)" style="fill: #7f7f7f"/>
   </g>
   <g id="patch_47">
    <path d="M 161.25 252 
L 162.910714 252 
L 162.910714 251.628275 
L 161.25 251.628275 
z
" clip-path="url(#p213393600d)" style="fill: #7f7f7f"/>
   </g>
   <g id="patch_48">
    <path d="M 207.75 252 
L 209.410714 252 
L 209.410714 251.813031 
L 207.75 251.813031 
z
" clip-path="url(#p213393600d)" style="fill: #7f7f7f"/>
   </g>
   <g id="patch_49">
    <path d="M 254.25 252 
L 255.910714 252 
L 255.910714 251.8287 
L 254.25 251.8287 
z
" clip-path="url(#p213393600d)" style="fill: #7f7f7f"/>
   </g>
   <g id="patch_50">
    <path d="M 300.75 252 
L 302.410714 252 
L 302.410714 251.888815 
L 300.75 251.888815 
z
" clip-path="url(#p213393600d)" style="fill: #7f7f7f"/>
   </g>
   <g id="patch_51">
    <path d="M 69.910714 252 
L 71.571429 252 
L 71.571429 251.857253 
L 69.910714 251.857253 
z
" clip-path="url(#p213393600d)" style="fill: #bcbd22"/>
   </g>
   <g id="patch_52">
    <path d="M 116.410714 252 
L 118.071429 252 
L 118.071429 251.954422 
L 116.410714 251.954422 
z
" clip-path="url(#p213393600d)" style="fill: #bcbd22"/>
   </g>
   <g id="patch_53">
    <path d="M 162.910714 252 
L 164.571429 252 
L 164.571429 251.852554 
L 162.910714 251.852554 
z
" clip-path="url(#p213393600d)" style="fill: #bcbd22"/>
   </g>
   <g id="patch_54">
    <path d="M 209.410714 252 
L 211.071429 252 
L 211.071429 251.768945 
L 209.410714 251.768945 
z
" clip-path="url(#p213393600d)" style="fill: #bcbd22"/>
   </g>
   <g id="patch_55">
    <path d="M 255.910714 252 
L 257.571429 252 
L 257.571429 251.948608 
L 255.910714 251.948608 
z
" clip-path="url(#p213393600d)" style="fill: #bcbd22"/>
   </g>
   <g id="patch_56">
    <path d="M 302.410714 252 
L 304.071429 252 
L 304.071429 251.975269 
L 302.410714 251.975269 
z
" clip-path="url(#p213393600d)" style="fill: #bcbd22"/>
   </g>
   <g id="patch_57">
    <path d="M 71.571429 252 
L 73.232143 252 
L 73.232143 251.677864 
L 71.571429 251.677864 
z
" clip-path="url(#p213393600d)" style="fill: #17becf"/>
   </g>
   <g id="patch_58">
    <path d="M 118.071429 252 
L 119.732143 252 
L 119.732143 251.917649 
L 118.071429 251.917649 
z
" clip-path="url(#p213393600d)" style="fill: #17becf"/>
   </g>
   <g id="patch_59">
    <path d="M 164.571429 252 
L 166.232143 252 
L 166.232143 251.517572 
L 164.571429 251.517572 
z
" clip-path="url(#p213393600d)" style="fill: #17becf"/>
   </g>
   <g id="patch_60">
    <path d="M 211.071429 252 
L 212.732143 252 
L 212.732143 250.894577 
L 211.071429 250.894577 
z
" clip-path="url(#p213393600d)" style="fill: #17becf"/>
   </g>
   <g id="patch_61">
    <path d="M 257.571429 252 
L 259.232143 252 
L 259.232143 251.831536 
L 257.571429 251.831536 
z
" clip-path="url(#p213393600d)" style="fill: #17becf"/>
   </g>
   <g id="patch_62">
    <path d="M 304.071429 252 
L 305.732143 252 
L 305.732143 251.971585 
L 304.071429 251.971585 
z
" clip-path="url(#p213393600d)" style="fill: #17becf"/>
   </g>
   <g id="patch_63">
    <path d="M 73.232143 252 
L 74.892857 252 
L 74.892857 232.12776 
L 73.232143 232.12776 
z
" clip-path="url(#p213393600d)" style="fill: #1f77b4"/>
   </g>
   <g id="patch_64">
    <path d="M 119.732143 252 
L 121.392857 252 
L 121.392857 240.584058 
L 119.732143 240.584058 
z
" clip-path="url(#p213393600d)" style="fill: #1f77b4"/>
   </g>
   <g id="patch_65">
    <path d="M 166.232143 252 
L 167.892857 252 
L 167.892857 233.850022 
L 166.232143 233.850022 
z
" clip-path="url(#p213393600d)" style="fill: #1f77b4"/>
   </g>
   <g id="patch_66">
    <path d="M 212.732143 252 
L 214.392857 252 
L 214.392857 228.431331 
L 212.732143 228.431331 
z
" clip-path="url(#p213393600d)" style="fill: #1f77b4"/>
   </g>
   <g id="patch_67">
    <path d="M 259.232143 252 
L 260.892857 252 
L 260.892857 238.709021 
L 259.232143 238.709021 
z
" clip-path="url(#p213393600d)" style="fill: #1f77b4"/>
   </g>
   <g id="patch_68">
    <path d="M 305.732143 252 
L 307.392857 252 
L 307.392857 241.378114 
L 305.732143 241.378114 
z
" clip-path="url(#p213393600d)" style="fill: #1f77b4"/>
   </g>
   <g id="patch_69">
    <path d="M 74.892857 252 
L 76.553571 252 
L 76.553571 245.860045 
L 74.892857 245.860045 
z
" clip-path="url(#p213393600d)" style="fill: #ff7f0e"/>
   </g>
   <g id="patch_70">
    <path d="M 121.392857 252 
L 123.053571 252 
L 123.053571 247.003214 
L 121.392857 247.003214 
z
" clip-path="url(#p213393600d)" style="fill: #ff7f0e"/>
   </g>
   <g id="patch_71">
    <path d="M 167.892857 252 
L 169.553571 252 
L 169.553571 241.499131 
L 167.892857 241.499131 
z
" clip-path="url(#p213393600d)" style="fill: #ff7f0e"/>
   </g>
   <g id="patch_72">
    <path d="M 214.392857 252 
L 216.053571 252 
L 216.053571 236.545312 
L 214.392857 236.545312 
z
" clip-path="url(#p213393600d)" style="fill: #ff7f0e"/>
   </g>
   <g id="patch_73">
    <path d="M 260.892857 252 
L 262.553571 252 
L 262.553571 245.553483 
L 260.892857 245.553483 
z
" clip-path="url(#p213393600d)" style="fill: #ff7f0e"/>
   </g>
   <g id="patch_74">
    <path d="M 307.392857 252 
L 309.053571 252 
L 309.053571 247.845192 
L 307.392857 247.845192 
z
" clip-path="url(#p213393600d)" style="fill: #ff7f0e"/>
   </g>
   <g id="patch_75">
    <path d="M 76.553571 252 
L 78.214286 252 
L 78.214286 212.065985 
L 76.553571 212.065985 
z
" clip-path="url(#p213393600d)" style="fill: #2ca02c"/>
   </g>
   <g id="patch_76">
    <path d="M 123.053571 252 
L 124.714286 252 
L 124.714286 218.448356 
L 123.053571 218.448356 
z
" clip-path="url(#p213393600d)" style="fill: #2ca02c"/>
   </g>
   <g id="patch_77">
    <path d="M 169.553571 252 
L 171.214286 252 
L 171.214286 191.625381 
L 169.553571 191.625381 
z
" clip-path="url(#p213393600d)" style="fill: #2ca02c"/>
   </g>
   <g id="patch_78">
    <path d="M 216.053571 252 
L 217.714286 252 
L 217.714286 180.563215 
L 216.053571 180.563215 
z
" clip-path="url(#p213393600d)" style="fill: #2ca02c"/>
   </g>
   <g id="patch_79">
    <path d="M 262.553571 252 
L 264.214286 252 
L 264.214286 223.044311 
L 262.553571 223.044311 
z
" clip-path="url(#p213393600d)" style="fill: #2ca02c"/>
   </g>
   <g id="patch_80">
    <path d="M 309.053571 252 
L 310.714286 252 
L 310.714286 229.230523 
L 309.053571 229.230523 
z
" clip-path="url(#p213393600d)" style="fill: #2ca02c"/>
   </g>
   <g id="patch_81">
    <path d="M 78.214286 252 
L 79.875 252 
L 79.875 151.114783 
L 78.214286 151.114783 
z
" clip-path="url(#p213393600d)" style="fill: #d62728"/>
   </g>
   <g id="patch_82">
    <path d="M 124.714286 252 
L 126.375 252 
L 126.375 171.147216 
L 124.714286 171.147216 
z
" clip-path="url(#p213393600d)" style="fill: #d62728"/>
   </g>
   <g id="patch_83">
    <path d="M 171.214286 252 
L 172.875 252 
L 172.875 113.117544 
L 171.214286 113.117544 
z
" clip-path="url(#p213393600d)" style="fill: #d62728"/>
   </g>
   <g id="patch_84">
    <path d="M 217.714286 252 
L 219.375 252 
L 219.375 82.165732 
L 217.714286 82.165732 
z
" clip-path="url(#p213393600d)" style="fill: #d62728"/>
   </g>
   <g id="patch_85">
    <path d="M 264.214286 252 
L 265.875 252 
L 265.875 171.045853 
L 264.214286 171.045853 
z
" clip-path="url(#p213393600d)" style="fill: #d62728"/>
   </g>
   <g id="patch_86">
    <path d="M 310.714286 252 
L 312.375 252 
L 312.375 195.504151 
L 310.714286 195.504151 
z
" clip-path="url(#p213393600d)" style="fill: #d62728"/>
   </g>
   <g id="matplotlib.axis_1">
    <g id="xtick_1">
     <g id="line2d_1">
      <defs>
       <path id="m83d7678f8a" d="M 0 0 
L 0 3.5 
" style="stroke: #000000; stroke-width: 0.8"/>
      </defs>
      <g>
       <use xlink:href="#m83d7678f8a" x="68.25" y="252" style="stroke: #000000; stroke-width: 0.8"/>
      </g>
     </g>
     <g id="text_1">
      <!-- I -->
      <g transform="translate(66.775 266.598437) scale(0.1 -0.1)">
       <defs>
        <path id="DejaVuSans-49" d="M 628 4666 
L 1259 4666 
L 1259 0 
L 628 0 
L 628 4666 
z
" transform="scale(0.015625)"/>
       </defs>
       <use xlink:href="#DejaVuSans-49"/>
      </g>
     </g>
    </g>
    <g id="xtick_2">
     <g id="line2d_2">
      <g>
       <use xlink:href="#m83d7678f8a" x="114.75" y="252" style="stroke: #000000; stroke-width: 0.8"/>
      </g>
     </g>
     <g id="text_2">
      <!-- II -->
      <g transform="translate(111.8 266.598437) scale(0.1 -0.1)">
       <use xlink:href="#DejaVuSans-49"/>
       <use xlink:href="#DejaVuSans-49" x="29.492188"/>
      </g>
     </g>
    </g>
    <g id="xtick_3">
     <g id="line2d_3">
      <g>
       <use xlink:href="#m83d7678f8a" x="161.25" y="252" style="stroke: #000000; stroke-width: 0.8"/>
      </g>
     </g>
     <g id="text_3">
      <!-- III -->
      <g transform="translate(156.825 266.598437) scale(0.1 -0.1)">
       <use xlink:href="#DejaVuSans-49"/>
       <use xlink:href="#DejaVuSans-49" x="29.492188"/>
       <use xlink:href="#DejaVuSans-49" x="58.984375"/>
      </g>
     </g>
    </g>
    <g id="xtick_4">
     <g id="line2d_4">
      <g>
       <use xlink:href="#m83d7678f8a" x="207.75" y="252" style="stroke: #000000; stroke-width: 0.8"/>
      </g>
     </g>
     <g id="text_4">
      <!-- IV -->
      <g transform="translate(202.854688 266.598437) scale(0.1 -0.1)">
       <defs>
        <path id="DejaVuSans-56" d="M 1831 0 
L 50 4666 
L 709 4666 
L 2188 738 
L 3669 4666 
L 4325 4666 
L 2547 0 
L 1831 0 
z
" transform="scale(0.015625)"/>
       </defs>
       <use xlink:href="#DejaVuSans-49"/>
       <use xlink:href="#DejaVuSans-56" x="29.492188"/>
      </g>
     </g>
    </g>
    <g id="xtick_5">
     <g id="line2d_5">
      <g>
       <use xlink:href="#m83d7678f8a" x="254.25" y="252" style="stroke: #000000; stroke-width: 0.8"/>
      </g>
     </g>
     <g id="text_5">
      <!-- V -->
      <g transform="translate(250.829688 266.598437) scale(0.1 -0.1)">
       <use xlink:href="#DejaVuSans-56"/>
      </g>
     </g>
    </g>
    <g id="xtick_6">
     <g id="line2d_6">
      <g>
       <use xlink:href="#m83d7678f8a" x="300.75" y="252" style="stroke: #000000; stroke-width: 0.8"/>
      </g>
     </g>
     <g id="text_6">
      <!-- VI -->
      <g transform="translate(295.854688 266.598437) scale(0.1 -0.1)">
       <use xlink:href="#DejaVuSans-56"/>
       <use xlink:href="#DejaVuSans-49" x="68.408203"/>
      </g>
     </g>
    </g>
   </g>
   <g id="matplotlib.axis_2">
    <g id="ytick_1">
     <g id="line2d_7">
      <defs>
       <path id="m3f25d01d56" d="M 0 0 
L -3.5 0 
" style="stroke: #000000; stroke-width: 0.8"/>
      </defs>
      <g>
       <use xlink:href="#m3f25d01d56" x="45" y="252" style="stroke: #000000; stroke-width: 0.8"/>
      </g>
     </g>
     <g id="text_7">
      <!-- 0 -->
      <g transform="translate(31.6375 255.799219) scale(0.1 -0.1)">
       <defs>
        <path id="DejaVuSans-30" d="M 2034 4250 
Q 1547 4250 1301 3770 
Q 1056 3291 1056 2328 
Q 1056 1369 1301 889 
Q 1547 409 2034 409 
Q 2525 409 2770 889 
Q 3016 1369 3016 2328 
Q 3016 3291 2770 3770 
Q 2525 4250 2034 4250 
z
M 2034 4750 
Q 2819 4750 3233 4129 
Q 3647 3509 3647 2328 
Q 3647 1150 3233 529 
Q 2819 -91 2034 -91 
Q 1250 -91 836 529 
Q 422 1150 422 2328 
Q 422 3509 836 4129 
Q 1250 4750 2034 4750 
z
" transform="scale(0.015625)"/>
       </defs>
       <use xlink:href="#DejaVuSans-30"/>
      </g>
     </g>
    </g>
    <g id="ytick_2">
     <g id="line2d_8">
      <g>
       <use xlink:href="#m3f25d01d56" x="45" y="206.163663" style="stroke: #000000; stroke-width: 0.8"/>
      </g>
     </g>
     <g id="text_8">
      <!-- 2 -->
      <g transform="translate(31.6375 209.962882) scale(0.1 -0.1)">
       <defs>
        <path id="DejaVuSans-32" d="M 1228 531 
L 3431 531 
L 3431 0 
L 469 0 
L 469 531 
Q 828 903 1448 1529 
Q 2069 2156 2228 2338 
Q 2531 2678 2651 2914 
Q 2772 3150 2772 3378 
Q 2772 3750 2511 3984 
Q 2250 4219 1831 4219 
Q 1534 4219 1204 4116 
Q 875 4013 500 3803 
L 500 4441 
Q 881 4594 1212 4672 
Q 1544 4750 1819 4750 
Q 2544 4750 2975 4387 
Q 3406 4025 3406 3419 
Q 3406 3131 3298 2873 
Q 3191 2616 2906 2266 
Q 2828 2175 2409 1742 
Q 1991 1309 1228 531 
z
" transform="scale(0.015625)"/>
       </defs>
       <use xlink:href="#DejaVuSans-32"/>
      </g>
     </g>
    </g>
    <g id="ytick_3">
     <g id="line2d_9">
      <g>
       <use xlink:href="#m3f25d01d56" x="45" y="160.327326" style="stroke: #000000; stroke-width: 0.8"/>
      </g>
     </g>
     <g id="text_9">
      <!-- 4 -->
      <g transform="translate(31.6375 164.126545) scale(0.1 -0.1)">
       <defs>
        <path id="DejaVuSans-34" d="M 2419 4116 
L 825 1625 
L 2419 1625 
L 2419 4116 
z
M 2253 4666 
L 3047 4666 
L 3047 1625 
L 3713 1625 
L 3713 1100 
L 3047 1100 
L 3047 0 
L 2419 0 
L 2419 1100 
L 313 1100 
L 313 1709 
L 2253 4666 
z
" transform="scale(0.015625)"/>
       </defs>
       <use xlink:href="#DejaVuSans-34"/>
      </g>
     </g>
    </g>
    <g id="ytick_4">
     <g id="line2d_10">
      <g>
       <use xlink:href="#m3f25d01d56" x="45" y="114.490989" style="stroke: #000000; stroke-width: 0.8"/>
      </g>
     </g>
     <g id="text_10">
      <!-- 6 -->
      <g transform="translate(31.6375 118.290208) scale(0.1 -0.1)">
       <defs>
        <path id="DejaVuSans-36" d="M 2113 2584 
Q 1688 2584 1439 2293 
Q 1191 2003 1191 1497 
Q 1191 994 1439 701 
Q 1688 409 2113 409 
Q 2538 409 2786 701 
Q 3034 994 3034 1497 
Q 3034 2003 2786 2293 
Q 2538 2584 2113 2584 
z
M 3366 4563 
L 3366 3988 
Q 3128 4100 2886 4159 
Q 2644 4219 2406 4219 
Q 1781 4219 1451 3797 
Q 1122 3375 1075 2522 
Q 1259 2794 1537 2939 
Q 1816 3084 2150 3084 
Q 2853 3084 3261 2657 
Q 3669 2231 3669 1497 
Q 3669 778 3244 343 
Q 2819 -91 2113 -91 
Q 1303 -91 875 529 
Q 447 1150 447 2328 
Q 447 3434 972 4092 
Q 1497 4750 2381 4750 
Q 2619 4750 2861 4703 
Q 3103 4656 3366 4563 
z
" transform="scale(0.015625)"/>
       </defs>
       <use xlink:href="#DejaVuSans-36"/>
      </g>
     </g>
    </g>
    <g id="ytick_5">
     <g id="line2d_11">
      <g>
       <use xlink:href="#m3f25d01d56" x="45" y="68.654652" style="stroke: #000000; stroke-width: 0.8"/>
      </g>
     </g>
     <g id="text_11">
      <!-- 8 -->
      <g transform="translate(31.6375 72.453871) scale(0.1 -0.1)">
       <defs>
        <path id="DejaVuSans-38" d="M 2034 2216 
Q 1584 2216 1326 1975 
Q 1069 1734 1069 1313 
Q 1069 891 1326 650 
Q 1584 409 2034 409 
Q 2484 409 2743 651 
Q 3003 894 3003 1313 
Q 3003 1734 2745 1975 
Q 2488 2216 2034 2216 
z
M 1403 2484 
Q 997 2584 770 2862 
Q 544 3141 544 3541 
Q 544 4100 942 4425 
Q 1341 4750 2034 4750 
Q 2731 4750 3128 4425 
Q 3525 4100 3525 3541 
Q 3525 3141 3298 2862 
Q 3072 2584 2669 2484 
Q 3125 2378 3379 2068 
Q 3634 1759 3634 1313 
Q 3634 634 3220 271 
Q 2806 -91 2034 -91 
Q 1263 -91 848 271 
Q 434 634 434 1313 
Q 434 1759 690 2068 
Q 947 2378 1403 2484 
z
M 1172 3481 
Q 1172 3119 1398 2916 
Q 1625 2713 2034 2713 
Q 2441 2713 2670 2916 
Q 2900 3119 2900 3481 
Q 2900 3844 2670 4047 
Q 2441 4250 2034 4250 
Q 1625 4250 1398 4047 
Q 1172 3844 1172 3481 
z
" transform="scale(0.015625)"/>
       </defs>
       <use xlink:href="#DejaVuSans-38"/>
      </g>
     </g>
    </g>
    <g id="text_12">
     <!-- c(Protein) [mmol/g(CDW)] -->
     <g transform="translate(25.532812 200.78) rotate(-90) scale(0.1 -0.1)">
      <defs>
       <path id="ArialMT-63" d="M 2588 1216 
L 3141 1144 
Q 3050 572 2676 248 
Q 2303 -75 1759 -75 
Q 1078 -75 664 370 
Q 250 816 250 1647 
Q 250 2184 428 2587 
Q 606 2991 970 3192 
Q 1334 3394 1763 3394 
Q 2303 3394 2647 3120 
Q 2991 2847 3088 2344 
L 2541 2259 
Q 2463 2594 2264 2762 
Q 2066 2931 1784 2931 
Q 1359 2931 1093 2626 
Q 828 2322 828 1663 
Q 828 994 1084 691 
Q 1341 388 1753 388 
Q 2084 388 2306 591 
Q 2528 794 2588 1216 
z
" transform="scale(0.015625)"/>
       <path id="ArialMT-28" d="M 1497 -1347 
Q 1031 -759 709 28 
Q 388 816 388 1659 
Q 388 2403 628 3084 
Q 909 3875 1497 4659 
L 1900 4659 
Q 1522 4009 1400 3731 
Q 1209 3300 1100 2831 
Q 966 2247 966 1656 
Q 966 153 1900 -1347 
L 1497 -1347 
z
" transform="scale(0.015625)"/>
       <path id="ArialMT-50" d="M 494 0 
L 494 4581 
L 2222 4581 
Q 2678 4581 2919 4538 
Q 3256 4481 3484 4323 
Q 3713 4166 3852 3881 
Q 3991 3597 3991 3256 
Q 3991 2672 3619 2267 
Q 3247 1863 2275 1863 
L 1100 1863 
L 1100 0 
L 494 0 
z
M 1100 2403 
L 2284 2403 
Q 2872 2403 3119 2622 
Q 3366 2841 3366 3238 
Q 3366 3525 3220 3729 
Q 3075 3934 2838 4000 
Q 2684 4041 2272 4041 
L 1100 4041 
L 1100 2403 
z
" transform="scale(0.015625)"/>
       <path id="ArialMT-72" d="M 416 0 
L 416 3319 
L 922 3319 
L 922 2816 
Q 1116 3169 1280 3281 
Q 1444 3394 1641 3394 
Q 1925 3394 2219 3213 
L 2025 2691 
Q 1819 2813 1613 2813 
Q 1428 2813 1281 2702 
Q 1134 2591 1072 2394 
Q 978 2094 978 1738 
L 978 0 
L 416 0 
z
" transform="scale(0.015625)"/>
       <path id="ArialMT-6f" d="M 213 1659 
Q 213 2581 725 3025 
Q 1153 3394 1769 3394 
Q 2453 3394 2887 2945 
Q 3322 2497 3322 1706 
Q 3322 1066 3130 698 
Q 2938 331 2570 128 
Q 2203 -75 1769 -75 
Q 1072 -75 642 372 
Q 213 819 213 1659 
z
M 791 1659 
Q 791 1022 1069 705 
Q 1347 388 1769 388 
Q 2188 388 2466 706 
Q 2744 1025 2744 1678 
Q 2744 2294 2464 2611 
Q 2184 2928 1769 2928 
Q 1347 2928 1069 2612 
Q 791 2297 791 1659 
z
" transform="scale(0.015625)"/>
       <path id="ArialMT-74" d="M 1650 503 
L 1731 6 
Q 1494 -44 1306 -44 
Q 1000 -44 831 53 
Q 663 150 594 308 
Q 525 466 525 972 
L 525 2881 
L 113 2881 
L 113 3319 
L 525 3319 
L 525 4141 
L 1084 4478 
L 1084 3319 
L 1650 3319 
L 1650 2881 
L 1084 2881 
L 1084 941 
Q 1084 700 1114 631 
Q 1144 563 1211 522 
Q 1278 481 1403 481 
Q 1497 481 1650 503 
z
" transform="scale(0.015625)"/>
       <path id="ArialMT-65" d="M 2694 1069 
L 3275 997 
Q 3138 488 2766 206 
Q 2394 -75 1816 -75 
Q 1088 -75 661 373 
Q 234 822 234 1631 
Q 234 2469 665 2931 
Q 1097 3394 1784 3394 
Q 2450 3394 2872 2941 
Q 3294 2488 3294 1666 
Q 3294 1616 3291 1516 
L 816 1516 
Q 847 969 1125 678 
Q 1403 388 1819 388 
Q 2128 388 2347 550 
Q 2566 713 2694 1069 
z
M 847 1978 
L 2700 1978 
Q 2663 2397 2488 2606 
Q 2219 2931 1791 2931 
Q 1403 2931 1139 2672 
Q 875 2413 847 1978 
z
" transform="scale(0.015625)"/>
       <path id="ArialMT-69" d="M 425 3934 
L 425 4581 
L 988 4581 
L 988 3934 
L 425 3934 
z
M 425 0 
L 425 3319 
L 988 3319 
L 988 0 
L 425 0 
z
" transform="scale(0.015625)"/>
       <path id="ArialMT-6e" d="M 422 0 
L 422 3319 
L 928 3319 
L 928 2847 
Q 1294 3394 1984 3394 
Q 2284 3394 2536 3286 
Q 2788 3178 2913 3003 
Q 3038 2828 3088 2588 
Q 3119 2431 3119 2041 
L 3119 0 
L 2556 0 
L 2556 2019 
Q 2556 2363 2490 2533 
Q 2425 2703 2258 2804 
Q 2091 2906 1866 2906 
Q 1506 2906 1245 2678 
Q 984 2450 984 1813 
L 984 0 
L 422 0 
z
" transform="scale(0.015625)"/>
       <path id="ArialMT-29" d="M 791 -1347 
L 388 -1347 
Q 1322 153 1322 1656 
Q 1322 2244 1188 2822 
Q 1081 3291 891 3722 
Q 769 4003 388 4659 
L 791 4659 
Q 1378 3875 1659 3084 
Q 1900 2403 1900 1659 
Q 1900 816 1576 28 
Q 1253 -759 791 -1347 
z
" transform="scale(0.015625)"/>
       <path id="ArialMT-20" transform="scale(0.015625)"/>
       <path id="ArialMT-5b" d="M 434 -1272 
L 434 4581 
L 1675 4581 
L 1675 4116 
L 997 4116 
L 997 -806 
L 1675 -806 
L 1675 -1272 
L 434 -1272 
z
" transform="scale(0.015625)"/>
       <path id="ArialMT-6d" d="M 422 0 
L 422 3319 
L 925 3319 
L 925 2853 
Q 1081 3097 1340 3245 
Q 1600 3394 1931 3394 
Q 2300 3394 2536 3241 
Q 2772 3088 2869 2813 
Q 3263 3394 3894 3394 
Q 4388 3394 4653 3120 
Q 4919 2847 4919 2278 
L 4919 0 
L 4359 0 
L 4359 2091 
Q 4359 2428 4304 2576 
Q 4250 2725 4106 2815 
Q 3963 2906 3769 2906 
Q 3419 2906 3187 2673 
Q 2956 2441 2956 1928 
L 2956 0 
L 2394 0 
L 2394 2156 
Q 2394 2531 2256 2718 
Q 2119 2906 1806 2906 
Q 1569 2906 1367 2781 
Q 1166 2656 1075 2415 
Q 984 2175 984 1722 
L 984 0 
L 422 0 
z
" transform="scale(0.015625)"/>
       <path id="ArialMT-6c" d="M 409 0 
L 409 4581 
L 972 4581 
L 972 0 
L 409 0 
z
" transform="scale(0.015625)"/>
       <path id="ArialMT-2f" d="M 0 -78 
L 1328 4659 
L 1778 4659 
L 453 -78 
L 0 -78 
z
" transform="scale(0.015625)"/>
       <path id="ArialMT-67" d="M 319 -275 
L 866 -356 
Q 900 -609 1056 -725 
Q 1266 -881 1628 -881 
Q 2019 -881 2231 -725 
Q 2444 -569 2519 -288 
Q 2563 -116 2559 434 
Q 2191 0 1641 0 
Q 956 0 581 494 
Q 206 988 206 1678 
Q 206 2153 378 2554 
Q 550 2956 876 3175 
Q 1203 3394 1644 3394 
Q 2231 3394 2613 2919 
L 2613 3319 
L 3131 3319 
L 3131 450 
Q 3131 -325 2973 -648 
Q 2816 -972 2473 -1159 
Q 2131 -1347 1631 -1347 
Q 1038 -1347 672 -1080 
Q 306 -813 319 -275 
z
M 784 1719 
Q 784 1066 1043 766 
Q 1303 466 1694 466 
Q 2081 466 2343 764 
Q 2606 1063 2606 1700 
Q 2606 2309 2336 2618 
Q 2066 2928 1684 2928 
Q 1309 2928 1046 2623 
Q 784 2319 784 1719 
z
" transform="scale(0.015625)"/>
       <path id="ArialMT-43" d="M 3763 1606 
L 4369 1453 
Q 4178 706 3683 314 
Q 3188 -78 2472 -78 
Q 1731 -78 1267 223 
Q 803 525 561 1097 
Q 319 1669 319 2325 
Q 319 3041 592 3573 
Q 866 4106 1370 4382 
Q 1875 4659 2481 4659 
Q 3169 4659 3637 4309 
Q 4106 3959 4291 3325 
L 3694 3184 
Q 3534 3684 3231 3912 
Q 2928 4141 2469 4141 
Q 1941 4141 1586 3887 
Q 1231 3634 1087 3207 
Q 944 2781 944 2328 
Q 944 1744 1114 1308 
Q 1284 872 1643 656 
Q 2003 441 2422 441 
Q 2931 441 3284 734 
Q 3638 1028 3763 1606 
z
" transform="scale(0.015625)"/>
       <path id="ArialMT-44" d="M 494 0 
L 494 4581 
L 2072 4581 
Q 2606 4581 2888 4516 
Q 3281 4425 3559 4188 
Q 3922 3881 4101 3404 
Q 4281 2928 4281 2316 
Q 4281 1794 4159 1391 
Q 4038 988 3847 723 
Q 3656 459 3429 307 
Q 3203 156 2883 78 
Q 2563 0 2147 0 
L 494 0 
z
M 1100 541 
L 2078 541 
Q 2531 541 2789 625 
Q 3047 709 3200 863 
Q 3416 1078 3536 1442 
Q 3656 1806 3656 2325 
Q 3656 3044 3420 3430 
Q 3184 3816 2847 3947 
Q 2603 4041 2063 4041 
L 1100 4041 
L 1100 541 
z
" transform="scale(0.015625)"/>
       <path id="ArialMT-57" d="M 1294 0 
L 78 4581 
L 700 4581 
L 1397 1578 
Q 1509 1106 1591 641 
Q 1766 1375 1797 1488 
L 2669 4581 
L 3400 4581 
L 4056 2263 
Q 4303 1400 4413 641 
Q 4500 1075 4641 1638 
L 5359 4581 
L 5969 4581 
L 4713 0 
L 4128 0 
L 3163 3491 
Q 3041 3928 3019 4028 
Q 2947 3713 2884 3491 
L 1913 0 
L 1294 0 
z
" transform="scale(0.015625)"/>
       <path id="ArialMT-5d" d="M 1363 -1272 
L 122 -1272 
L 122 -806 
L 800 -806 
L 800 4116 
L 122 4116 
L 122 4581 
L 1363 4581 
L 1363 -1272 
z
" transform="scale(0.015625)"/>
      </defs>
      <use xlink:href="#ArialMT-63"/>
      <use xlink:href="#ArialMT-28" x="50"/>
      <use xlink:href="#ArialMT-50" x="83.300781"/>
      <use xlink:href="#ArialMT-72" x="150"/>
      <use xlink:href="#ArialMT-6f" x="183.300781"/>
      <use xlink:href="#ArialMT-74" x="238.916016"/>
      <use xlink:href="#ArialMT-65" x="266.699219"/>
      <use xlink:href="#ArialMT-69" x="322.314453"/>
      <use xlink:href="#ArialMT-6e" x="344.53125"/>
      <use xlink:href="#ArialMT-29" x="400.146484"/>
      <use xlink:href="#ArialMT-20" x="433.447266"/>
      <use xlink:href="#ArialMT-5b" x="461.230469"/>
      <use xlink:href="#ArialMT-6d" x="489.013672"/>
      <use xlink:href="#ArialMT-6d" x="572.314453"/>
      <use xlink:href="#ArialMT-6f" x="655.615234"/>
      <use xlink:href="#ArialMT-6c" x="711.230469"/>
      <use xlink:href="#ArialMT-2f" x="733.447266"/>
      <use xlink:href="#ArialMT-67" x="761.230469"/>
      <use xlink:href="#ArialMT-28" x="816.845703"/>
      <use xlink:href="#ArialMT-43" x="850.146484"/>
      <use xlink:href="#ArialMT-44" x="922.363281"/>
      <use xlink:href="#ArialMT-57" x="994.580078"/>
      <use xlink:href="#ArialMT-29" x="1088.964844"/>
      <use xlink:href="#ArialMT-5d" x="1122.265625"/>
     </g>
    </g>
    <g id="text_13">
     <!-- 1e−5 -->
     <g transform="translate(45 31.56) scale(0.1 -0.1)">
      <defs>
       <path id="DejaVuSans-31" d="M 794 531 
L 1825 531 
L 1825 4091 
L 703 3866 
L 703 4441 
L 1819 4666 
L 2450 4666 
L 2450 531 
L 3481 531 
L 3481 0 
L 794 0 
L 794 531 
z
" transform="scale(0.015625)"/>
       <path id="DejaVuSans-65" d="M 3597 1894 
L 3597 1613 
L 953 1613 
Q 991 1019 1311 708 
Q 1631 397 2203 397 
Q 2534 397 2845 478 
Q 3156 559 3463 722 
L 3463 178 
Q 3153 47 2828 -22 
Q 2503 -91 2169 -91 
Q 1331 -91 842 396 
Q 353 884 353 1716 
Q 353 2575 817 3079 
Q 1281 3584 2069 3584 
Q 2775 3584 3186 3129 
Q 3597 2675 3597 1894 
z
M 3022 2063 
Q 3016 2534 2758 2815 
Q 2500 3097 2075 3097 
Q 1594 3097 1305 2825 
Q 1016 2553 972 2059 
L 3022 2063 
z
" transform="scale(0.015625)"/>
       <path id="DejaVuSans-2212" d="M 678 2272 
L 4684 2272 
L 4684 1741 
L 678 1741 
L 678 2272 
z
" transform="scale(0.015625)"/>
       <path id="DejaVuSans-35" d="M 691 4666 
L 3169 4666 
L 3169 4134 
L 1269 4134 
L 1269 2991 
Q 1406 3038 1543 3061 
Q 1681 3084 1819 3084 
Q 2600 3084 3056 2656 
Q 3513 2228 3513 1497 
Q 3513 744 3044 326 
Q 2575 -91 1722 -91 
Q 1428 -91 1123 -41 
Q 819 9 494 109 
L 494 744 
Q 775 591 1075 516 
Q 1375 441 1709 441 
Q 2250 441 2565 725 
Q 2881 1009 2881 1497 
Q 2881 1984 2565 2268 
Q 2250 2553 1709 2553 
Q 1456 2553 1204 2497 
Q 953 2441 691 2322 
L 691 4666 
z
" transform="scale(0.015625)"/>
      </defs>
      <use xlink:href="#DejaVuSans-31"/>
      <use xlink:href="#DejaVuSans-65" x="63.623047"/>
      <use xlink:href="#DejaVuSans-2212" x="125.146484"/>
      <use xlink:href="#DejaVuSans-35" x="208.935547"/>
     </g>
    </g>
   </g>
   <g id="LineCollection_1">
    <path d="M 57.455357 251.99253 
L 57.455357 251.973134 
" clip-path="url(#p213393600d)" style="fill: none; stroke: #000000; stroke-width: 1.5"/>
    <path d="M 103.955357 251.985271 
L 103.955357 251.956314 
" clip-path="url(#p213393600d)" style="fill: none; stroke: #000000; stroke-width: 1.5"/>
    <path d="M 150.455357 251.997397 
L 150.455357 251.803162 
" clip-path="url(#p213393600d)" style="fill: none; stroke: #000000; stroke-width: 1.5"/>
    <path d="M 196.955357 251.987222 
L 196.955357 251.968317 
" clip-path="url(#p213393600d)" style="fill: none; stroke: #000000; stroke-width: 1.5"/>
    <path d="M 243.455357 251.982345 
L 243.455357 251.973528 
" clip-path="url(#p213393600d)" style="fill: none; stroke: #000000; stroke-width: 1.5"/>
    <path d="M 289.955357 251.973633 
L 289.955357 251.961071 
" clip-path="url(#p213393600d)" style="fill: none; stroke: #000000; stroke-width: 1.5"/>
   </g>
   <g id="LineCollection_2">
    <path d="M 59.116071 251.998634 
L 59.116071 251.993495 
" clip-path="url(#p213393600d)" style="fill: none; stroke: #000000; stroke-width: 1.5"/>
    <path d="M 105.616071 251.99908 
L 105.616071 251.984672 
" clip-path="url(#p213393600d)" style="fill: none; stroke: #000000; stroke-width: 1.5"/>
    <path d="M 152.116071 251.998007 
L 152.116071 251.981264 
" clip-path="url(#p213393600d)" style="fill: none; stroke: #000000; stroke-width: 1.5"/>
    <path d="M 198.616071 251.993672 
L 198.616071 251.976839 
" clip-path="url(#p213393600d)" style="fill: none; stroke: #000000; stroke-width: 1.5"/>
    <path d="M 245.116071 252.023913 
L 245.116071 251.904517 
" clip-path="url(#p213393600d)" style="fill: none; stroke: #000000; stroke-width: 1.5"/>
    <path d="M 291.616071 251.996626 
L 291.616071 251.991984 
" clip-path="url(#p213393600d)" style="fill: none; stroke: #000000; stroke-width: 1.5"/>
   </g>
   <g id="LineCollection_3">
    <path d="M 60.776786 246.402476 
L 60.776786 244.824025 
" clip-path="url(#p213393600d)" style="fill: none; stroke: #000000; stroke-width: 1.5"/>
    <path d="M 107.276786 250.62713 
L 107.276786 250.369035 
" clip-path="url(#p213393600d)" style="fill: none; stroke: #000000; stroke-width: 1.5"/>
    <path d="M 153.776786 248.435188 
L 153.776786 247.738747 
" clip-path="url(#p213393600d)" style="fill: none; stroke: #000000; stroke-width: 1.5"/>
    <path d="M 200.276786 251.994589 
L 200.276786 251.991247 
" clip-path="url(#p213393600d)" style="fill: none; stroke: #000000; stroke-width: 1.5"/>
    <path d="M 246.776786 251.998536 
L 246.776786 251.997404 
" clip-path="url(#p213393600d)" style="fill: none; stroke: #000000; stroke-width: 1.5"/>
    <path d="M 293.276786 251.998363 
L 293.276786 251.998272 
" clip-path="url(#p213393600d)" style="fill: none; stroke: #000000; stroke-width: 1.5"/>
   </g>
   <g id="LineCollection_4">
    <path d="M 62.4375 250.904581 
L 62.4375 249.051811 
" clip-path="url(#p213393600d)" style="fill: none; stroke: #000000; stroke-width: 1.5"/>
    <path d="M 108.9375 251.815524 
L 108.9375 251.533155 
" clip-path="url(#p213393600d)" style="fill: none; stroke: #000000; stroke-width: 1.5"/>
    <path d="M 155.4375 251.63288 
L 155.4375 250.927704 
" clip-path="url(#p213393600d)" style="fill: none; stroke: #000000; stroke-width: 1.5"/>
    <path d="M 201.9375 250.943011 
L 201.9375 249.186534 
" clip-path="url(#p213393600d)" style="fill: none; stroke: #000000; stroke-width: 1.5"/>
    <path d="M 248.4375 251.870845 
L 248.4375 251.598134 
" clip-path="url(#p213393600d)" style="fill: none; stroke: #000000; stroke-width: 1.5"/>
    <path d="M 294.9375 251.948524 
L 294.9375 251.886671 
" clip-path="url(#p213393600d)" style="fill: none; stroke: #000000; stroke-width: 1.5"/>
   </g>
   <g id="LineCollection_5">
    <path d="M 64.098214 206.798731 
L 64.098214 198.440166 
" clip-path="url(#p213393600d)" style="fill: none; stroke: #000000; stroke-width: 1.5"/>
    <path d="M 110.598214 245.429669 
L 110.598214 243.198438 
" clip-path="url(#p213393600d)" style="fill: none; stroke: #000000; stroke-width: 1.5"/>
    <path d="M 157.098214 231.187152 
L 157.098214 218.249977 
" clip-path="url(#p213393600d)" style="fill: none; stroke: #000000; stroke-width: 1.5"/>
    <path d="M 203.598214 223.554693 
L 203.598214 215.983853 
" clip-path="url(#p213393600d)" style="fill: none; stroke: #000000; stroke-width: 1.5"/>
    <path d="M 250.098214 243.163817 
L 250.098214 240.611918 
" clip-path="url(#p213393600d)" style="fill: none; stroke: #000000; stroke-width: 1.5"/>
    <path d="M 296.598214 248.616482 
L 296.598214 246.760907 
" clip-path="url(#p213393600d)" style="fill: none; stroke: #000000; stroke-width: 1.5"/>
   </g>
   <g id="LineCollection_6">
    <path d="M 65.758929 224.900268 
L 65.758929 223.13529 
" clip-path="url(#p213393600d)" style="fill: none; stroke: #000000; stroke-width: 1.5"/>
    <path d="M 112.258929 247.509804 
L 112.258929 246.508408 
" clip-path="url(#p213393600d)" style="fill: none; stroke: #000000; stroke-width: 1.5"/>
    <path d="M 158.758929 243.860583 
L 158.758929 240.228302 
" clip-path="url(#p213393600d)" style="fill: none; stroke: #000000; stroke-width: 1.5"/>
    <path d="M 205.258929 236.498272 
L 205.258929 234.509875 
" clip-path="url(#p213393600d)" style="fill: none; stroke: #000000; stroke-width: 1.5"/>
    <path d="M 251.758929 248.574132 
L 251.758929 248.185212 
" clip-path="url(#p213393600d)" style="fill: none; stroke: #000000; stroke-width: 1.5"/>
    <path d="M 298.258929 250.771611 
L 298.258929 250.338266 
" clip-path="url(#p213393600d)" style="fill: none; stroke: #000000; stroke-width: 1.5"/>
   </g>
   <g id="LineCollection_7">
    <path d="M 67.419643 245.379796 
L 67.419643 244.502672 
" clip-path="url(#p213393600d)" style="fill: none; stroke: #000000; stroke-width: 1.5"/>
    <path d="M 113.919643 249.835044 
L 113.919643 249.518915 
" clip-path="url(#p213393600d)" style="fill: none; stroke: #000000; stroke-width: 1.5"/>
    <path d="M 160.419643 247.589378 
L 160.419643 246.610806 
" clip-path="url(#p213393600d)" style="fill: none; stroke: #000000; stroke-width: 1.5"/>
    <path d="M 206.919643 222.678588 
L 206.919643 213.729362 
" clip-path="url(#p213393600d)" style="fill: none; stroke: #000000; stroke-width: 1.5"/>
    <path d="M 253.419643 240.080333 
L 253.419643 236.839887 
" clip-path="url(#p213393600d)" style="fill: none; stroke: #000000; stroke-width: 1.5"/>
    <path d="M 299.919643 248.625379 
L 299.919643 248.570098 
" clip-path="url(#p213393600d)" style="fill: none; stroke: #000000; stroke-width: 1.5"/>
   </g>
   <g id="LineCollection_8">
    <path d="M 69.080357 251.905705 
L 69.080357 251.892713 
" clip-path="url(#p213393600d)" style="fill: none; stroke: #000000; stroke-width: 1.5"/>
    <path d="M 115.580357 251.837106 
L 115.580357 251.796329 
" clip-path="url(#p213393600d)" style="fill: none; stroke: #000000; stroke-width: 1.5"/>
    <path d="M 162.080357 251.702542 
L 162.080357 251.554009 
" clip-path="url(#p213393600d)" style="fill: none; stroke: #000000; stroke-width: 1.5"/>
    <path d="M 208.580357 251.869208 
L 208.580357 251.756854 
" clip-path="url(#p213393600d)" style="fill: none; stroke: #000000; stroke-width: 1.5"/>
    <path d="M 255.080357 251.853757 
L 255.080357 251.803643 
" clip-path="url(#p213393600d)" style="fill: none; stroke: #000000; stroke-width: 1.5"/>
    <path d="M 301.580357 251.914319 
L 301.580357 251.863312 
" clip-path="url(#p213393600d)" style="fill: none; stroke: #000000; stroke-width: 1.5"/>
   </g>
   <g id="LineCollection_9">
    <path d="M 70.741071 251.880053 
L 70.741071 251.834453 
" clip-path="url(#p213393600d)" style="fill: none; stroke: #000000; stroke-width: 1.5"/>
    <path d="M 117.241071 251.961565 
L 117.241071 251.94728 
" clip-path="url(#p213393600d)" style="fill: none; stroke: #000000; stroke-width: 1.5"/>
    <path d="M 163.741071 251.912359 
L 163.741071 251.792749 
" clip-path="url(#p213393600d)" style="fill: none; stroke: #000000; stroke-width: 1.5"/>
    <path d="M 210.241071 251.831447 
L 210.241071 251.706443 
" clip-path="url(#p213393600d)" style="fill: none; stroke: #000000; stroke-width: 1.5"/>
    <path d="M 256.741071 251.980604 
L 256.741071 251.916611 
" clip-path="url(#p213393600d)" style="fill: none; stroke: #000000; stroke-width: 1.5"/>
    <path d="M 303.241071 251.976056 
L 303.241071 251.974482 
" clip-path="url(#p213393600d)" style="fill: none; stroke: #000000; stroke-width: 1.5"/>
   </g>
   <g id="LineCollection_10">
    <path d="M 72.401786 251.857103 
L 72.401786 251.498624 
" clip-path="url(#p213393600d)" style="fill: none; stroke: #000000; stroke-width: 1.5"/>
    <path d="M 118.901786 251.971883 
L 118.901786 251.863414 
" clip-path="url(#p213393600d)" style="fill: none; stroke: #000000; stroke-width: 1.5"/>
    <path d="M 165.401786 251.658432 
L 165.401786 251.376713 
" clip-path="url(#p213393600d)" style="fill: none; stroke: #000000; stroke-width: 1.5"/>
    <path d="M 211.901786 251.062708 
L 211.901786 250.726446 
" clip-path="url(#p213393600d)" style="fill: none; stroke: #000000; stroke-width: 1.5"/>
    <path d="M 258.401786 251.887282 
L 258.401786 251.77579 
" clip-path="url(#p213393600d)" style="fill: none; stroke: #000000; stroke-width: 1.5"/>
    <path d="M 304.901786 251.972291 
L 304.901786 251.970878 
" clip-path="url(#p213393600d)" style="fill: none; stroke: #000000; stroke-width: 1.5"/>
   </g>
   <g id="LineCollection_11">
    <path d="M 74.0625 236.870315 
L 74.0625 227.385205 
" clip-path="url(#p213393600d)" style="fill: none; stroke: #000000; stroke-width: 1.5"/>
    <path d="M 120.5625 243.405597 
L 120.5625 237.762519 
" clip-path="url(#p213393600d)" style="fill: none; stroke: #000000; stroke-width: 1.5"/>
    <path d="M 167.0625 236.312023 
L 167.0625 231.38802 
" clip-path="url(#p213393600d)" style="fill: none; stroke: #000000; stroke-width: 1.5"/>
    <path d="M 213.5625 232.929489 
L 213.5625 223.933174 
" clip-path="url(#p213393600d)" style="fill: none; stroke: #000000; stroke-width: 1.5"/>
    <path d="M 260.0625 241.279685 
L 260.0625 236.138357 
" clip-path="url(#p213393600d)" style="fill: none; stroke: #000000; stroke-width: 1.5"/>
    <path d="M 306.5625 242.662583 
L 306.5625 240.093646 
" clip-path="url(#p213393600d)" style="fill: none; stroke: #000000; stroke-width: 1.5"/>
   </g>
   <g id="LineCollection_12">
    <path d="M 75.723214 247.198504 
L 75.723214 244.521586 
" clip-path="url(#p213393600d)" style="fill: none; stroke: #000000; stroke-width: 1.5"/>
    <path d="M 122.223214 247.585583 
L 122.223214 246.420845 
" clip-path="url(#p213393600d)" style="fill: none; stroke: #000000; stroke-width: 1.5"/>
    <path d="M 168.723214 242.674941 
L 168.723214 240.323321 
" clip-path="url(#p213393600d)" style="fill: none; stroke: #000000; stroke-width: 1.5"/>
    <path d="M 215.223214 236.678762 
L 215.223214 236.411863 
" clip-path="url(#p213393600d)" style="fill: none; stroke: #000000; stroke-width: 1.5"/>
    <path d="M 261.723214 246.299909 
L 261.723214 244.807056 
" clip-path="url(#p213393600d)" style="fill: none; stroke: #000000; stroke-width: 1.5"/>
    <path d="M 308.223214 247.879923 
L 308.223214 247.81046 
" clip-path="url(#p213393600d)" style="fill: none; stroke: #000000; stroke-width: 1.5"/>
   </g>
   <g id="LineCollection_13">
    <path d="M 77.383929 212.666139 
L 77.383929 211.46583 
" clip-path="url(#p213393600d)" style="fill: none; stroke: #000000; stroke-width: 1.5"/>
    <path d="M 123.883929 223.363608 
L 123.883929 213.533104 
" clip-path="url(#p213393600d)" style="fill: none; stroke: #000000; stroke-width: 1.5"/>
    <path d="M 170.383929 197.450118 
L 170.383929 185.800643 
" clip-path="url(#p213393600d)" style="fill: none; stroke: #000000; stroke-width: 1.5"/>
    <path d="M 216.883929 186.002923 
L 216.883929 175.123507 
" clip-path="url(#p213393600d)" style="fill: none; stroke: #000000; stroke-width: 1.5"/>
    <path d="M 263.383929 226.74311 
L 263.383929 219.345513 
" clip-path="url(#p213393600d)" style="fill: none; stroke: #000000; stroke-width: 1.5"/>
    <path d="M 309.883929 232.369225 
L 309.883929 226.091822 
" clip-path="url(#p213393600d)" style="fill: none; stroke: #000000; stroke-width: 1.5"/>
   </g>
   <g id="LineCollection_14">
    <path d="M 79.044643 155.02228 
L 79.044643 147.207285 
" clip-path="url(#p213393600d)" style="fill: none; stroke: #000000; stroke-width: 1.5"/>
    <path d="M 125.544643 183.454505 
L 125.544643 158.839927 
" clip-path="url(#p213393600d)" style="fill: none; stroke: #000000; stroke-width: 1.5"/>
    <path d="M 172.044643 152.388624 
L 172.044643 73.846464 
" clip-path="url(#p213393600d)" style="fill: none; stroke: #000000; stroke-width: 1.5"/>
    <path d="M 218.544643 119.416039 
L 218.544643 44.915424 
" clip-path="url(#p213393600d)" style="fill: none; stroke: #000000; stroke-width: 1.5"/>
    <path d="M 265.044643 182.014228 
L 265.044643 160.077478 
" clip-path="url(#p213393600d)" style="fill: none; stroke: #000000; stroke-width: 1.5"/>
    <path d="M 311.544643 199.657664 
L 311.544643 191.350637 
" clip-path="url(#p213393600d)" style="fill: none; stroke: #000000; stroke-width: 1.5"/>
   </g>
   <g id="patch_87">
    <path d="M 45 252 
L 45 34.56 
" style="fill: none; stroke: #000000; stroke-width: 0.8; stroke-linejoin: miter; stroke-linecap: square"/>
   </g>
   <g id="patch_88">
    <path d="M 324 252 
L 324 34.56 
" style="fill: none; stroke: #000000; stroke-width: 0.8; stroke-linejoin: miter; stroke-linecap: square"/>
   </g>
   <g id="patch_89">
    <path d="M 45 252 
L 324 252 
" style="fill: none; stroke: #000000; stroke-width: 0.8; stroke-linejoin: miter; stroke-linecap: square"/>
   </g>
   <g id="patch_90">
    <path d="M 45 34.56 
L 324 34.56 
" style="fill: none; stroke: #000000; stroke-width: 0.8; stroke-linejoin: miter; stroke-linecap: square"/>
   </g>
   <g id="text_14">
    <!-- FDH1 -->
    <g transform="translate(166.22125 28.56) scale(0.14 -0.14)">
     <defs>
      <path id="Arial-BoldMT-46" d="M 472 0 
L 472 4581 
L 3613 4581 
L 3613 3806 
L 1397 3806 
L 1397 2722 
L 3309 2722 
L 3309 1947 
L 1397 1947 
L 1397 0 
L 472 0 
z
" transform="scale(0.015625)"/>
      <path id="Arial-BoldMT-44" d="M 463 4581 
L 2153 4581 
Q 2725 4581 3025 4494 
Q 3428 4375 3715 4072 
Q 4003 3769 4153 3330 
Q 4303 2891 4303 2247 
Q 4303 1681 4163 1272 
Q 3991 772 3672 463 
Q 3431 228 3022 97 
Q 2716 0 2203 0 
L 463 0 
L 463 4581 
z
M 1388 3806 
L 1388 772 
L 2078 772 
Q 2466 772 2638 816 
Q 2863 872 3011 1006 
Q 3159 1141 3253 1448 
Q 3347 1756 3347 2288 
Q 3347 2819 3253 3103 
Q 3159 3388 2990 3547 
Q 2822 3706 2563 3763 
Q 2369 3806 1803 3806 
L 1388 3806 
z
" transform="scale(0.015625)"/>
      <path id="Arial-BoldMT-48" d="M 469 0 
L 469 4581 
L 1394 4581 
L 1394 2778 
L 3206 2778 
L 3206 4581 
L 4131 4581 
L 4131 0 
L 3206 0 
L 3206 2003 
L 1394 2003 
L 1394 0 
L 469 0 
z
" transform="scale(0.015625)"/>
      <path id="Arial-BoldMT-31" d="M 2519 0 
L 1641 0 
L 1641 3309 
Q 1159 2859 506 2644 
L 506 3441 
Q 850 3553 1253 3867 
Q 1656 4181 1806 4600 
L 2519 4600 
L 2519 0 
z
" transform="scale(0.015625)"/>
     </defs>
     <use xlink:href="#Arial-BoldMT-46"/>
     <use xlink:href="#Arial-BoldMT-44" x="61.083984"/>
     <use xlink:href="#Arial-BoldMT-48" x="133.300781"/>
     <use xlink:href="#Arial-BoldMT-31" x="205.517578"/>
    </g>
   </g>
   <g id="legend_1">
    <g id="patch_91">
     <path d="M 331 248.05375 
L 404.704687 248.05375 
Q 406.704687 248.05375 406.704687 246.05375 
L 406.704687 41.56 
Q 406.704687 39.56 404.704687 39.56 
L 331 39.56 
Q 329 39.56 329 41.56 
L 329 246.05375 
Q 329 248.05375 331 248.05375 
z
" style="fill: #ffffff; opacity: 0.8; stroke: #cccccc; stroke-linejoin: miter"/>
    </g>
    <g id="patch_92">
     <path d="M 333 51.158437 
L 353 51.158437 
L 353 44.158437 
L 333 44.158437 
z
" style="fill: #1f77b4"/>
    </g>
    <g id="text_15">
     <!-- Q0K0I8 -->
     <g transform="translate(361 51.158437) scale(0.1 -0.1)">
      <defs>
       <path id="DejaVuSans-51" d="M 2522 4238 
Q 1834 4238 1429 3725 
Q 1025 3213 1025 2328 
Q 1025 1447 1429 934 
Q 1834 422 2522 422 
Q 3209 422 3611 934 
Q 4013 1447 4013 2328 
Q 4013 3213 3611 3725 
Q 3209 4238 2522 4238 
z
M 3406 84 
L 4238 -825 
L 3475 -825 
L 2784 -78 
Q 2681 -84 2626 -87 
Q 2572 -91 2522 -91 
Q 1538 -91 948 567 
Q 359 1225 359 2328 
Q 359 3434 948 4092 
Q 1538 4750 2522 4750 
Q 3503 4750 4090 4092 
Q 4678 3434 4678 2328 
Q 4678 1516 4351 937 
Q 4025 359 3406 84 
z
" transform="scale(0.015625)"/>
       <path id="DejaVuSans-4b" d="M 628 4666 
L 1259 4666 
L 1259 2694 
L 3353 4666 
L 4166 4666 
L 1850 2491 
L 4331 0 
L 3500 0 
L 1259 2247 
L 1259 0 
L 628 0 
L 628 4666 
z
" transform="scale(0.015625)"/>
      </defs>
      <use xlink:href="#DejaVuSans-51"/>
      <use xlink:href="#DejaVuSans-30" x="78.710938"/>
      <use xlink:href="#DejaVuSans-4b" x="142.333984"/>
      <use xlink:href="#DejaVuSans-30" x="207.910156"/>
      <use xlink:href="#DejaVuSans-49" x="271.533203"/>
      <use xlink:href="#DejaVuSans-38" x="301.025391"/>
     </g>
    </g>
    <g id="patch_93">
     <path d="M 333 65.836563 
L 353 65.836563 
L 353 58.836563 
L 333 58.836563 
z
" style="fill: #ff7f0e"/>
    </g>
    <g id="text_16">
     <!-- Q0K0I9 -->
     <g transform="translate(361 65.836563) scale(0.1 -0.1)">
      <defs>
       <path id="DejaVuSans-39" d="M 703 97 
L 703 672 
Q 941 559 1184 500 
Q 1428 441 1663 441 
Q 2288 441 2617 861 
Q 2947 1281 2994 2138 
Q 2813 1869 2534 1725 
Q 2256 1581 1919 1581 
Q 1219 1581 811 2004 
Q 403 2428 403 3163 
Q 403 3881 828 4315 
Q 1253 4750 1959 4750 
Q 2769 4750 3195 4129 
Q 3622 3509 3622 2328 
Q 3622 1225 3098 567 
Q 2575 -91 1691 -91 
Q 1453 -91 1209 -44 
Q 966 3 703 97 
z
M 1959 2075 
Q 2384 2075 2632 2365 
Q 2881 2656 2881 3163 
Q 2881 3666 2632 3958 
Q 2384 4250 1959 4250 
Q 1534 4250 1286 3958 
Q 1038 3666 1038 3163 
Q 1038 2656 1286 2365 
Q 1534 2075 1959 2075 
z
" transform="scale(0.015625)"/>
      </defs>
      <use xlink:href="#DejaVuSans-51"/>
      <use xlink:href="#DejaVuSans-30" x="78.710938"/>
      <use xlink:href="#DejaVuSans-4b" x="142.333984"/>
      <use xlink:href="#DejaVuSans-30" x="207.910156"/>
      <use xlink:href="#DejaVuSans-49" x="271.533203"/>
      <use xlink:href="#DejaVuSans-39" x="301.025391"/>
     </g>
    </g>
    <g id="patch_94">
     <path d="M 333 80.514688 
L 353 80.514688 
L 353 73.514688 
L 333 73.514688 
z
" style="fill: #2ca02c"/>
    </g>
    <g id="text_17">
     <!-- Q0K165 -->
     <g transform="translate(361 80.514688) scale(0.1 -0.1)">
      <use xlink:href="#DejaVuSans-51"/>
      <use xlink:href="#DejaVuSans-30" x="78.710938"/>
      <use xlink:href="#DejaVuSans-4b" x="142.333984"/>
      <use xlink:href="#DejaVuSans-31" x="207.910156"/>
      <use xlink:href="#DejaVuSans-36" x="271.533203"/>
      <use xlink:href="#DejaVuSans-35" x="335.15625"/>
     </g>
    </g>
    <g id="patch_95">
     <path d="M 333 95.192813 
L 353 95.192813 
L 353 88.192813 
L 333 88.192813 
z
" style="fill: #d62728"/>
    </g>
    <g id="text_18">
     <!-- Q0K182 -->
     <g transform="translate(361 95.192813) scale(0.1 -0.1)">
      <use xlink:href="#DejaVuSans-51"/>
      <use xlink:href="#DejaVuSans-30" x="78.710938"/>
      <use xlink:href="#DejaVuSans-4b" x="142.333984"/>
      <use xlink:href="#DejaVuSans-31" x="207.910156"/>
      <use xlink:href="#DejaVuSans-38" x="271.533203"/>
      <use xlink:href="#DejaVuSans-32" x="335.15625"/>
     </g>
    </g>
    <g id="patch_96">
     <path d="M 333 109.870937 
L 353 109.870937 
L 353 102.870937 
L 333 102.870937 
z
" style="fill: #9467bd"/>
    </g>
    <g id="text_19">
     <!-- Q0K183 -->
     <g transform="translate(361 109.870937) scale(0.1 -0.1)">
      <defs>
       <path id="DejaVuSans-33" d="M 2597 2516 
Q 3050 2419 3304 2112 
Q 3559 1806 3559 1356 
Q 3559 666 3084 287 
Q 2609 -91 1734 -91 
Q 1441 -91 1130 -33 
Q 819 25 488 141 
L 488 750 
Q 750 597 1062 519 
Q 1375 441 1716 441 
Q 2309 441 2620 675 
Q 2931 909 2931 1356 
Q 2931 1769 2642 2001 
Q 2353 2234 1838 2234 
L 1294 2234 
L 1294 2753 
L 1863 2753 
Q 2328 2753 2575 2939 
Q 2822 3125 2822 3475 
Q 2822 3834 2567 4026 
Q 2313 4219 1838 4219 
Q 1578 4219 1281 4162 
Q 984 4106 628 3988 
L 628 4550 
Q 988 4650 1302 4700 
Q 1616 4750 1894 4750 
Q 2613 4750 3031 4423 
Q 3450 4097 3450 3541 
Q 3450 3153 3228 2886 
Q 3006 2619 2597 2516 
z
" transform="scale(0.015625)"/>
      </defs>
      <use xlink:href="#DejaVuSans-51"/>
      <use xlink:href="#DejaVuSans-30" x="78.710938"/>
      <use xlink:href="#DejaVuSans-4b" x="142.333984"/>
      <use xlink:href="#DejaVuSans-31" x="207.910156"/>
      <use xlink:href="#DejaVuSans-38" x="271.533203"/>
      <use xlink:href="#DejaVuSans-33" x="335.15625"/>
     </g>
    </g>
    <g id="patch_97">
     <path d="M 333 124.549062 
L 353 124.549062 
L 353 117.549062 
L 333 117.549062 
z
" style="fill: #8c564b"/>
    </g>
    <g id="text_20">
     <!-- Q0K184 -->
     <g transform="translate(361 124.549062) scale(0.1 -0.1)">
      <use xlink:href="#DejaVuSans-51"/>
      <use xlink:href="#DejaVuSans-30" x="78.710938"/>
      <use xlink:href="#DejaVuSans-4b" x="142.333984"/>
      <use xlink:href="#DejaVuSans-31" x="207.910156"/>
      <use xlink:href="#DejaVuSans-38" x="271.533203"/>
      <use xlink:href="#DejaVuSans-34" x="335.15625"/>
     </g>
    </g>
    <g id="patch_98">
     <path d="M 333 139.227188 
L 353 139.227188 
L 353 132.227188 
L 333 132.227188 
z
" style="fill: #e377c2"/>
    </g>
    <g id="text_21">
     <!-- Q0K1F2 -->
     <g transform="translate(361 139.227188) scale(0.1 -0.1)">
      <defs>
       <path id="DejaVuSans-46" d="M 628 4666 
L 3309 4666 
L 3309 4134 
L 1259 4134 
L 1259 2759 
L 3109 2759 
L 3109 2228 
L 1259 2228 
L 1259 0 
L 628 0 
L 628 4666 
z
" transform="scale(0.015625)"/>
      </defs>
      <use xlink:href="#DejaVuSans-51"/>
      <use xlink:href="#DejaVuSans-30" x="78.710938"/>
      <use xlink:href="#DejaVuSans-4b" x="142.333984"/>
      <use xlink:href="#DejaVuSans-31" x="207.910156"/>
      <use xlink:href="#DejaVuSans-46" x="271.533203"/>
      <use xlink:href="#DejaVuSans-32" x="329.052734"/>
     </g>
    </g>
    <g id="patch_99">
     <path d="M 333 153.905312 
L 353 153.905312 
L 353 146.905312 
L 333 146.905312 
z
" style="fill: #7f7f7f"/>
    </g>
    <g id="text_22">
     <!-- Q0K6K5 -->
     <g transform="translate(361 153.905312) scale(0.1 -0.1)">
      <use xlink:href="#DejaVuSans-51"/>
      <use xlink:href="#DejaVuSans-30" x="78.710938"/>
      <use xlink:href="#DejaVuSans-4b" x="142.333984"/>
      <use xlink:href="#DejaVuSans-36" x="207.910156"/>
      <use xlink:href="#DejaVuSans-4b" x="271.533203"/>
      <use xlink:href="#DejaVuSans-35" x="337.109375"/>
     </g>
    </g>
    <g id="patch_100">
     <path d="M 333 168.583438 
L 353 168.583438 
L 353 161.583438 
L 333 161.583438 
z
" style="fill: #bcbd22"/>
    </g>
    <g id="text_23">
     <!-- Q0K7K8 -->
     <g transform="translate(361 168.583438) scale(0.1 -0.1)">
      <defs>
       <path id="DejaVuSans-37" d="M 525 4666 
L 3525 4666 
L 3525 4397 
L 1831 0 
L 1172 0 
L 2766 4134 
L 525 4134 
L 525 4666 
z
" transform="scale(0.015625)"/>
      </defs>
      <use xlink:href="#DejaVuSans-51"/>
      <use xlink:href="#DejaVuSans-30" x="78.710938"/>
      <use xlink:href="#DejaVuSans-4b" x="142.333984"/>
      <use xlink:href="#DejaVuSans-37" x="207.910156"/>
      <use xlink:href="#DejaVuSans-4b" x="271.533203"/>
      <use xlink:href="#DejaVuSans-38" x="337.109375"/>
     </g>
    </g>
    <g id="patch_101">
     <path d="M 333 183.261562 
L 353 183.261562 
L 353 176.261562 
L 333 176.261562 
z
" style="fill: #17becf"/>
    </g>
    <g id="text_24">
     <!-- Q0K7K9 -->
     <g transform="translate(361 183.261562) scale(0.1 -0.1)">
      <use xlink:href="#DejaVuSans-51"/>
      <use xlink:href="#DejaVuSans-30" x="78.710938"/>
      <use xlink:href="#DejaVuSans-4b" x="142.333984"/>
      <use xlink:href="#DejaVuSans-37" x="207.910156"/>
      <use xlink:href="#DejaVuSans-4b" x="271.533203"/>
      <use xlink:href="#DejaVuSans-39" x="337.109375"/>
     </g>
    </g>
    <g id="patch_102">
     <path d="M 333 197.939687 
L 353 197.939687 
L 353 190.939687 
L 333 190.939687 
z
" style="fill: #1f77b4"/>
    </g>
    <g id="text_25">
     <!-- Q0KDX9 -->
     <g transform="translate(361 197.939687) scale(0.1 -0.1)">
      <defs>
       <path id="DejaVuSans-44" d="M 1259 4147 
L 1259 519 
L 2022 519 
Q 2988 519 3436 956 
Q 3884 1394 3884 2338 
Q 3884 3275 3436 3711 
Q 2988 4147 2022 4147 
L 1259 4147 
z
M 628 4666 
L 1925 4666 
Q 3281 4666 3915 4102 
Q 4550 3538 4550 2338 
Q 4550 1131 3912 565 
Q 3275 0 1925 0 
L 628 0 
L 628 4666 
z
" transform="scale(0.015625)"/>
       <path id="DejaVuSans-58" d="M 403 4666 
L 1081 4666 
L 2241 2931 
L 3406 4666 
L 4084 4666 
L 2584 2425 
L 4184 0 
L 3506 0 
L 2194 1984 
L 872 0 
L 191 0 
L 1856 2491 
L 403 4666 
z
" transform="scale(0.015625)"/>
      </defs>
      <use xlink:href="#DejaVuSans-51"/>
      <use xlink:href="#DejaVuSans-30" x="78.710938"/>
      <use xlink:href="#DejaVuSans-4b" x="142.333984"/>
      <use xlink:href="#DejaVuSans-44" x="207.910156"/>
      <use xlink:href="#DejaVuSans-58" x="284.912109"/>
      <use xlink:href="#DejaVuSans-39" x="353.417969"/>
     </g>
    </g>
    <g id="patch_103">
     <path d="M 333 212.617812 
L 353 212.617812 
L 353 205.617812 
L 333 205.617812 
z
" style="fill: #ff7f0e"/>
    </g>
    <g id="text_26">
     <!-- Q0KDY1 -->
     <g transform="translate(361 212.617812) scale(0.1 -0.1)">
      <defs>
       <path id="DejaVuSans-59" d="M -13 4666 
L 666 4666 
L 1959 2747 
L 3244 4666 
L 3922 4666 
L 2272 2222 
L 2272 0 
L 1638 0 
L 1638 2222 
L -13 4666 
z
" transform="scale(0.015625)"/>
      </defs>
      <use xlink:href="#DejaVuSans-51"/>
      <use xlink:href="#DejaVuSans-30" x="78.710938"/>
      <use xlink:href="#DejaVuSans-4b" x="142.333984"/>
      <use xlink:href="#DejaVuSans-44" x="207.910156"/>
      <use xlink:href="#DejaVuSans-59" x="279.412109"/>
      <use xlink:href="#DejaVuSans-31" x="340.496094"/>
     </g>
    </g>
    <g id="patch_104">
     <path d="M 333 227.295937 
L 353 227.295937 
L 353 220.295937 
L 333 220.295937 
z
" style="fill: #2ca02c"/>
    </g>
    <g id="text_27">
     <!-- Q0KDY2 -->
     <g transform="translate(361 227.295937) scale(0.1 -0.1)">
      <use xlink:href="#DejaVuSans-51"/>
      <use xlink:href="#DejaVuSans-30" x="78.710938"/>
      <use xlink:href="#DejaVuSans-4b" x="142.333984"/>
      <use xlink:href="#DejaVuSans-44" x="207.910156"/>
      <use xlink:href="#DejaVuSans-59" x="279.412109"/>
      <use xlink:href="#DejaVuSans-32" x="340.496094"/>
     </g>
    </g>
    <g id="patch_105">
     <path d="M 333 241.974062 
L 353 241.974062 
L 353 234.974062 
L 333 234.974062 
z
" style="fill: #d62728"/>
    </g>
    <g id="text_28">
     <!-- Q0KDY3 -->
     <g transform="translate(361 241.974062) scale(0.1 -0.1)">
      <use xlink:href="#DejaVuSans-51"/>
      <use xlink:href="#DejaVuSans-30" x="78.710938"/>
      <use xlink:href="#DejaVuSans-4b" x="142.333984"/>
      <use xlink:href="#DejaVuSans-44" x="207.910156"/>
      <use xlink:href="#DejaVuSans-59" x="279.412109"/>
      <use xlink:href="#DejaVuSans-33" x="340.496094"/>
     </g>
    </g>
   </g>
  </g>
 </g>
 <defs>
  <clipPath id="p213393600d">
   <rect x="45" y="34.56" width="279" height="217.44"/>
  </clipPath>
 </defs>
</svg>
